# xmcd
#
# Track frame offsets:
#	150
#	20142
#	35910
#	42087
#	50895
#	61921
#	80513
#	91094
#	103449
#	116557
#	126033
#	143563
#	155608
#	171518
#	185454
#	198465
#	211545
#	222879
#	236928
#	251661
#	262313
#
# Disc length: 3725 seconds
#
# Revision: 1
# Processed by: cddbd v1.5.2PL0 Copyright (c) Steve Scherf et al.
# Submitted via: audiograbber 1.83.01
#
DISCID=420e8b15
DTITLE=Светлана Безродная и Вивальди-оркестр - Песни войны и мира CD 1
DYEAR=2005
DGENRE=Musical
TTITLE0=Дунаевский - Увертюра из к.ф. Дети капитана Гранта
TTITLE1=Листов - В парке Чаир
TTITLE2=Дунаевский - Выходной марш к.ф. Цирк
TTITLE3=Дунаевский - Танец на пушке к.ф. Цирк
TTITLE4=Дунаевский - Лунный вальс к.ф. Цирк
TTITLE5=Дунаевский - Колыбельная к.ф. Цирк
TTITLE6=Дунаевский - Марш энтузиастов
TTITLE7=Люкеси - Брызги шампанского
TTITLE8=Раскинулось море широко
TTITLE9=Хайт - Марш авиаторов
TTITLE10=Богословский - Спят курганы к.ф. Большая жизнь
TTITLE11=Дунаевский - Идем, веселые подруги к.ф. Богатая невеста
TTITLE12=Покрасс - Москва майская
TTITLE13=Богословский-Долматовский - Любимый город к.ф. Истребители
TTITLE14=Богословский-Долматовский - Любимый город (М.Державин)
TTITLE15=Дунаевский - Легко на сердце к.ф. Веселые ребята (В.Зельдин)
TTITLE16=Дунаевский-Лебедев-Кумач - Как много девушек хороших (В.Зельдин)
TTITLE17=Хренников-Гусев - Песня о Москве к.ф. Свинарка и пастух
TTITLE18=Петерсбургский - Утомленное солнце
TTITLE19=Покрасс - Если завтра война
TTITLE20=Дунаевский - Песня о Родине к.ф. Цирк
EXTD=
EXTT0=
EXTT1=
EXTT2=
EXTT3=
EXTT4=
EXTT5=
EXTT6=
EXTT7=
EXTT8=
EXTT9=
EXTT10=
EXTT11=
EXTT12=
EXTT13=
EXTT14=
EXTT15=
EXTT16=
EXTT17=
EXTT18=
EXTT19=
EXTT20=
PLAYORDER=
